<svg xmlns="http://www.w3.org/2000/svg" width="128" height="24" viewBox="0 0 128 24" shape-rendering="crispEdges">
  <rect width="128" height="24" fill="transparent"/>

  <g transform="translate(0 0)">
    <rect x="14" y="5" width="6" height="6" fill="#166e1e"/>
    <rect x="20" y="7" width="2" height="3" fill="#166e1e"/>
    <rect x="12" y="7" width="3" height="2" fill="#ef7a20"/>
    <rect x="16" y="7" width="1" height="2" fill="#ffffff"/>
    <rect x="16" y="8" width="1" height="1" fill="#111111"/>
    <rect x="15" y="11" width="5" height="3" fill="#166e1e"/>
    <rect x="17" y="12" width="8" height="5" fill="#f6f6f6"/>
    <rect x="12" y="11" width="5" height="3" fill="#111111"/>
    <rect x="9" y="12" width="3" height="3" fill="#111111"/>
    <rect x="7" y="13" width="2" height="2" fill="#111111"/>
    <rect x="25" y="13" width="5" height="4" fill="#111111"/>
    <rect x="28" y="12" width="2" height="2" fill="#166e1e"/>
    <rect x="16" y="17" width="2" height="4" fill="#ef7a20"/>
    <rect x="21" y="17" width="2" height="4" fill="#ef7a20"/>
  </g>

  <g transform="translate(32 0)">
    <rect x="14" y="4" width="6" height="6" fill="#166e1e"/>
    <rect x="20" y="6" width="2" height="3" fill="#166e1e"/>
    <rect x="12" y="6" width="3" height="2" fill="#ef7a20"/>
    <rect x="16" y="6" width="1" height="2" fill="#ffffff"/>
    <rect x="16" y="7" width="1" height="1" fill="#111111"/>
    <rect x="15" y="10" width="5" height="3" fill="#166e1e"/>
    <rect x="17" y="11" width="8" height="5" fill="#f6f6f6"/>
    <rect x="12" y="10" width="5" height="3" fill="#111111"/>
    <rect x="8" y="9" width="4" height="3" fill="#111111"/>
    <rect x="6" y="10" width="2" height="2" fill="#111111"/>
    <rect x="25" y="12" width="5" height="4" fill="#111111"/>
    <rect x="28" y="11" width="2" height="2" fill="#166e1e"/>
    <rect x="16" y="17" width="2" height="4" fill="#ef7a20"/>
    <rect x="21" y="17" width="2" height="4" fill="#ef7a20"/>
  </g>

  <g transform="translate(64 0)">
    <rect x="14" y="5" width="6" height="6" fill="#166e1e"/>
    <rect x="20" y="7" width="2" height="3" fill="#166e1e"/>
    <rect x="12" y="7" width="3" height="2" fill="#ef7a20"/>
    <rect x="16" y="7" width="1" height="2" fill="#ffffff"/>
    <rect x="16" y="8" width="1" height="1" fill="#111111"/>
    <rect x="15" y="11" width="5" height="3" fill="#166e1e"/>
    <rect x="17" y="12" width="8" height="5" fill="#f6f6f6"/>
    <rect x="12" y="11" width="5" height="3" fill="#111111"/>
    <rect x="8" y="14" width="4" height="3" fill="#111111"/>
    <rect x="6" y="15" width="2" height="2" fill="#111111"/>
    <rect x="25" y="13" width="5" height="4" fill="#111111"/>
    <rect x="28" y="12" width="2" height="2" fill="#166e1e"/>
    <rect x="16" y="17" width="2" height="4" fill="#ef7a20"/>
    <rect x="21" y="17" width="2" height="4" fill="#ef7a20"/>
  </g>

  <g transform="translate(96 0)">
    <rect x="14" y="5" width="6" height="6" fill="#166e1e"/>
    <rect x="20" y="7" width="2" height="3" fill="#166e1e"/>
    <rect x="12" y="7" width="3" height="2" fill="#ef7a20"/>
    <rect x="16" y="7" width="1" height="2" fill="#ffffff"/>
    <rect x="16" y="8" width="1" height="1" fill="#111111"/>
    <rect x="15" y="11" width="5" height="3" fill="#166e1e"/>
    <rect x="16" y="12" width="6" height="4" fill="#f6f6f6"/>
    <rect x="13" y="12" width="3" height="7" fill="#111111"/>
    <rect x="22" y="12" width="3" height="7" fill="#111111"/>
    <rect x="17" y="17" width="2" height="5" fill="#ef7a20"/>
    <rect x="21" y="17" width="2" height="5" fill="#ef7a20"/>
  </g>
</svg>
